<svg width="20" height="20" viewBox="0 0 20 20" fill="none" xmlns="http://www.w3.org/2000/svg">
<path fill-rule="evenodd" clip-rule="evenodd" d="M13.3333 15.8333H18.3333V12.5H20V7.49999H11.1C10.1417 5.48332 8.1 4.16666 5.83333 4.16666C2.61667 4.16666 0 6.78332 0 9.99999C0 13.2167 2.61667 15.8333 5.83333 15.8333C8.1 15.8333 10.15 14.5167 11.1 12.5H13.3333V15.8333ZM16.6667 14.1667H15V10.8333H9.95L9.75834 11.3917C9.175 13.05 7.59167 14.1667 5.83333 14.1667C3.53333 14.1667 1.66667 12.3 1.66667 9.99999C1.66667 7.69999 3.53333 5.83332 5.83333 5.83332C7.59167 5.83332 9.175 6.94999 9.75834 8.60832L9.95 9.16666H18.3333V10.8333H16.6667V14.1667ZM5.83333 12.5C4.45833 12.5 3.33333 11.375 3.33333 9.99999C3.33333 8.62499 4.45833 7.49999 5.83333 7.49999C7.20833 7.49999 8.33333 8.62499 8.33333 9.99999C8.33333 11.375 7.20833 12.5 5.83333 12.5ZM5 9.99999C5 9.54166 5.375 9.16666 5.83333 9.16666C6.29167 9.16666 6.66667 9.54166 6.66667 9.99999C6.66667 10.4583 6.29167 10.8333 5.83333 10.8333C5.375 10.8333 5 10.4583 5 9.99999Z" fill="white"/>
</svg>
