<svg width="20" height="20" viewBox="0 0 20 20" fill="none" xmlns="http://www.w3.org/2000/svg">
<path fill-rule="evenodd" clip-rule="evenodd" d="M11.3131 8.25799L18.8798 15.8247C19.2131 16.158 19.2131 16.683 18.8798 16.9997L16.9631 18.9163C16.6381 19.2413 16.1131 19.2413 15.7881 18.9163L8.19648 11.3247C6.26315 12.0497 4.00481 11.6413 2.45481 10.0913C0.538145 8.18299 0.363145 5.19133 1.91315 3.07466L5.10481 6.26633L6.28814 5.09133L3.08815 1.88299C5.21314 0.332994 8.19648 0.507994 10.1131 2.42466C11.6881 4.00799 12.0881 6.30799 11.3131 8.25799ZM8.4965 9.27466L16.3798 17.158L17.1132 16.4163L9.23817 8.54133C9.6215 8.04966 9.8715 7.49966 9.9715 6.90799C10.1798 5.74966 9.83817 4.50799 8.93817 3.60799C8.1465 2.82466 7.10483 2.45799 6.0715 2.51633L8.6465 5.09133L5.11317 8.62466L2.53817 6.04966C2.47983 7.08299 2.8465 8.13299 3.63817 8.91633C4.50483 9.78299 5.6965 10.1247 6.82983 9.95799C7.4215 9.87466 7.98817 9.64966 8.4965 9.27466Z" fill="#B797F2"/>
</svg>
