<svg width="22" height="22" viewBox="0 0 22 22" fill="none" xmlns="http://www.w3.org/2000/svg">
<path fill-rule="evenodd" clip-rule="evenodd" d="M7.58083 2.75H14.4192L19.25 7.58083V14.4192L14.4192 19.25H7.58083L2.75 14.4192V7.58083L7.58083 2.75ZM13.6583 17.4167L17.4167 13.6583V8.34167L13.6583 4.58333H8.34167L4.58333 8.34167V13.6583L8.34167 17.4167H13.6583ZM11 13.75C10.4937 13.75 10.0833 14.1604 10.0833 14.6667C10.0833 15.1729 10.4937 15.5833 11 15.5833C11.5063 15.5833 11.9167 15.1729 11.9167 14.6667C11.9167 14.1604 11.5063 13.75 11 13.75ZM11.9167 6.41667H10.0833V12.8333H11.9167V6.41667Z" fill="#B797F2"/>
</svg>
