<svg width="22" height="22" viewBox="0 0 22 22" fill="none" xmlns="http://www.w3.org/2000/svg">
<path fill-rule="evenodd" clip-rule="evenodd" d="M13.585 3.66668H17.4167C18.425 3.66668 19.25 4.49168 19.25 5.50001V18.3333C19.25 19.3417 18.425 20.1667 17.4167 20.1667H4.58333C4.455 20.1667 4.33583 20.1575 4.21667 20.1392C3.85917 20.0658 3.53833 19.8825 3.29083 19.635C3.12583 19.4608 2.98833 19.2683 2.89667 19.0483C2.805 18.8283 2.75 18.5808 2.75 18.3333V5.50001C2.75 5.24334 2.805 5.00501 2.89667 4.79418C2.98833 4.57418 3.12583 4.37251 3.29083 4.20751C3.53833 3.96001 3.85917 3.77668 4.21667 3.70334C4.33583 3.67584 4.455 3.66668 4.58333 3.66668H8.415C8.8 2.60334 9.80833 1.83334 11 1.83334C12.1917 1.83334 13.2 2.60334 13.585 3.66668ZM6.41667 9.16668V7.33334H15.5833V9.16668H6.41667ZM15.5833 12.8333V11H6.41667V12.8333H15.5833ZM12.8333 14.6667H6.41667V16.5H12.8333V14.6667ZM11 3.43751C11.3758 3.43751 11.6875 3.74918 11.6875 4.12501C11.6875 4.50084 11.3758 4.81251 11 4.81251C10.6242 4.81251 10.3125 4.50084 10.3125 4.12501C10.3125 3.74918 10.6242 3.43751 11 3.43751ZM4.58333 18.3333H17.4167V5.50001H4.58333V18.3333Z" fill="#B797F2"/>
</svg>
