<svg width="50" height="50" viewBox="0 0 50 50" fill="none" xmlns="http://www.w3.org/2000/svg">
<g opacity="0.3">
<path fill-rule="evenodd" clip-rule="evenodd" d="M25 8.33331C20.3959 8.33331 16.6667 12.0625 16.6667 16.6666C16.6667 21.2708 20.3959 25 25 25C29.6042 25 33.3334 21.2708 33.3334 16.6666C33.3334 12.0625 29.6042 8.33331 25 8.33331ZM29.1667 16.6666C29.1667 14.375 27.2917 12.5 25 12.5C22.7084 12.5 20.8334 14.375 20.8334 16.6666C20.8334 18.9583 22.7084 20.8333 25 20.8333C27.2917 20.8333 29.1667 18.9583 29.1667 16.6666ZM37.5 35.4166C37.0834 33.9375 30.625 31.25 25 31.25C19.375 31.25 12.9167 33.9375 12.5 35.4375V37.5H37.5V35.4166ZM8.33337 35.4166C8.33337 29.875 19.4375 27.0833 25 27.0833C30.5625 27.0833 41.6667 29.875 41.6667 35.4166V41.6666H8.33337V35.4166Z" fill="white"/>
</g>
</svg>
