<svg width="50" height="50" viewBox="0 0 50 50" fill="none" xmlns="http://www.w3.org/2000/svg">
<g opacity="0.3">
<path fill-rule="evenodd" clip-rule="evenodd" d="M25.0001 4.16669C13.5001 4.16669 4.16675 13.5 4.16675 25C4.16675 36.5 13.5001 45.8334 25.0001 45.8334C36.5001 45.8334 45.8334 36.5 45.8334 25C45.8334 13.5 36.5001 4.16669 25.0001 4.16669ZM25.0001 41.6667C15.8126 41.6667 8.33342 34.1875 8.33342 25C8.33342 15.8125 15.8126 8.33335 25.0001 8.33335C34.1876 8.33335 41.6667 15.8125 41.6667 25C41.6667 34.1875 34.1876 41.6667 25.0001 41.6667ZM20.771 19.7292C20.771 21.25 21.9585 22.2709 25.646 23.2084C29.3126 24.1667 33.2501 25.75 33.271 30.3334C33.2501 33.6875 30.7501 35.5 27.5835 36.1042V39.5834H22.7085V36.0417C19.5835 35.3959 16.9585 33.3959 16.7501 29.8542H20.3335C20.521 31.7709 21.8335 33.2709 25.1668 33.2709C28.7293 33.2709 29.5418 31.4792 29.5418 30.375C29.5418 28.875 28.7293 27.4375 24.6668 26.4792C20.146 25.3959 17.0418 23.5209 17.0418 19.7917C17.0418 16.6459 19.5626 14.6042 22.7085 13.9375V10.4167H27.5626V13.9792C30.9376 14.8125 32.646 17.375 32.7501 20.1667H29.1876C29.1043 18.125 28.021 16.75 25.146 16.75C22.4168 16.75 20.771 17.9792 20.771 19.7292Z" fill="white"/>
</g>
</svg>
