<svg width="50" height="50" viewBox="0 0 50 50" fill="none" xmlns="http://www.w3.org/2000/svg">
<g opacity="0.3">
<path fill-rule="evenodd" clip-rule="evenodd" d="M25 14.5833H45.8333V43.75H4.16663V6.25H25V14.5833ZM8.33329 39.5833H12.5V35.4167H8.33329V39.5833ZM12.5 31.25H8.33329V27.0833H12.5V31.25ZM8.33329 22.9167H12.5V18.75H8.33329V22.9167ZM12.5 14.5833H8.33329V10.4167H12.5V14.5833ZM16.6666 39.5833H20.8333V35.4167H16.6666V39.5833ZM20.8333 31.25H16.6666V27.0833H20.8333V31.25ZM16.6666 22.9167H20.8333V18.75H16.6666V22.9167ZM20.8333 14.5833H16.6666V10.4167H20.8333V14.5833ZM25 39.5833H41.6666V18.75H25V22.9167H29.1666V27.0833H25V31.25H29.1666V35.4167H25V39.5833ZM37.5 22.9167H33.3333V27.0833H37.5V22.9167ZM33.3333 31.25H37.5V35.4167H33.3333V31.25Z" fill="white"/>
</g>
</svg>
