<svg width="50" height="50" viewBox="0 0 50 50" fill="none" xmlns="http://www.w3.org/2000/svg">
<g opacity="0.3">
<path fill-rule="evenodd" clip-rule="evenodd" d="M18.75 25C22.7708 25 26.0416 21.7292 26.0416 17.7084C26.0416 13.6875 22.7708 10.4167 18.75 10.4167C14.7291 10.4167 11.4583 13.6875 11.4583 17.7084C11.4583 21.7292 14.7291 25 18.75 25ZM4.16663 35.9375C4.16663 31.0834 13.875 28.6459 18.75 28.6459C23.625 28.6459 33.3333 31.0834 33.3333 35.9375V39.5834H4.16663V35.9375ZM18.7499 32.8125C15.0207 32.8125 10.7916 34.2084 9.04158 35.4167H28.4582C26.7082 34.2084 22.4791 32.8125 18.7499 32.8125ZM21.875 17.7084C21.875 15.9792 20.4791 14.5834 18.75 14.5834C17.0208 14.5834 15.625 15.9792 15.625 17.7084C15.625 19.4375 17.0208 20.8334 18.75 20.8334C20.4791 20.8334 21.875 19.4375 21.875 17.7084ZM33.4167 28.7709C35.8333 30.5209 37.5 32.8542 37.5 35.9375V39.5834H45.8333V35.9375C45.8333 31.7292 38.5417 29.3334 33.4167 28.7709ZM38.5416 17.7084C38.5416 21.7292 35.2708 25 31.25 25C30.125 25 29.0833 24.7292 28.125 24.2709C29.4375 22.4167 30.2083 20.1459 30.2083 17.7084C30.2083 15.2709 29.4375 13 28.125 11.1459C29.0833 10.6875 30.125 10.4167 31.25 10.4167C35.2708 10.4167 38.5416 13.6875 38.5416 17.7084Z" fill="white"/>
</g>
</svg>
