<svg width="50" height="50" viewBox="0 0 50 50" fill="none" xmlns="http://www.w3.org/2000/svg">
<g opacity="0.3">
<path fill-rule="evenodd" clip-rule="evenodd" d="M39.5833 6.25H10.4167C8.10417 6.25 6.25 8.125 6.25 10.4167V39.5833C6.25 41.875 8.10417 43.75 10.4167 43.75H39.5833C41.875 43.75 43.75 41.875 43.75 39.5833V10.4167C43.75 8.125 41.875 6.25 39.5833 6.25ZM31.25 18.75C31.25 22.1875 28.4375 25 25 25C21.5625 25 18.75 22.1875 18.75 18.75C18.75 15.3125 21.5625 12.5 25 12.5C28.4375 12.5 31.25 15.3125 31.25 18.75ZM27.0833 18.75C27.0833 17.6042 26.1458 16.6667 25 16.6667C23.8542 16.6667 22.9167 17.6042 22.9167 18.75C22.9167 19.8958 23.8542 20.8333 25 20.8333C26.1458 20.8333 27.0833 19.8958 27.0833 18.75ZM37.5 34.5417C37.5 29.3333 29.2292 27.0833 25 27.0833C20.7708 27.0833 12.5 29.3333 12.5 34.5417V37.5H37.5V34.5417ZM25 31.25C22.3125 31.25 19.2083 32.2708 17.6666 33.3333H32.3333C30.7916 32.2708 27.6875 31.25 25 31.25ZM10.4167 39.5833H39.5833V10.4167H10.4167V39.5833Z" fill="white"/>
</g>
</svg>
