<svg width="50" height="50" viewBox="0 0 50 50" fill="none" xmlns="http://www.w3.org/2000/svg">
<g opacity="0.3">
<path fill-rule="evenodd" clip-rule="evenodd" d="M18.75 25C22.7708 25 26.0416 21.7292 26.0416 17.7084C26.0416 13.6875 22.7708 10.4167 18.75 10.4167C14.7291 10.4167 11.4583 13.6875 11.4583 17.7084C11.4583 21.7292 14.7291 25 18.75 25ZM18.75 14.5834C20.4791 14.5834 21.875 15.9792 21.875 17.7084C21.875 19.4375 20.4791 20.8334 18.75 20.8334C17.0208 20.8334 15.625 19.4375 15.625 17.7084C15.625 15.9792 17.0208 14.5834 18.75 14.5834ZM9.93746 35.4167H18.8541C18.7916 35.75 18.75 36.1042 18.75 36.4584V39.5834H4.16663V36.4584C4.16663 31.6042 13.875 29.1667 18.75 29.1667C19.9166 29.1667 21.3541 29.3125 22.875 29.5834C21.3958 30.5834 20.1666 31.8334 19.4583 33.3542C19.3438 33.3542 19.224 33.349 19.1043 33.3438L19.1041 33.3438C18.9843 33.3386 18.8645 33.3334 18.75 33.3334C15.5625 33.3334 12 34.375 9.93746 35.4167ZM34.375 30.2084C30.5416 30.2084 22.9166 32.3125 22.9166 36.4584V39.5834H45.8333V36.4584C45.8333 32.3125 38.2083 30.2084 34.375 30.2084ZM39.5833 21.875C39.5833 23.8334 38.4791 25.5209 36.8958 26.4167C36.1458 26.8334 35.2916 27.0834 34.375 27.0834C33.4583 27.0834 32.6041 26.8334 31.8541 26.4167C30.2708 25.5209 29.1666 23.8334 29.1666 21.875C29.1666 19 31.5 16.6667 34.375 16.6667C37.25 16.6667 39.5833 19 39.5833 21.875Z" fill="white"/>
</g>
</svg>
