<svg width="50" height="50" viewBox="0 0 50 50" fill="none" xmlns="http://www.w3.org/2000/svg">
<g opacity="0.3">
<path fill-rule="evenodd" clip-rule="evenodd" d="M41.6668 14.5833H33.3334V10.4167L29.1667 6.25H20.8334L16.6667 10.4167V14.5833H8.33342C6.04175 14.5833 4.16675 16.4583 4.16675 18.75V29.1667C4.16675 30.7292 5.00008 32.0417 6.25008 32.7708V39.5833C6.25008 41.8958 8.10425 43.75 10.4167 43.75H39.5834C41.8959 43.75 43.7501 41.8958 43.7501 39.5833V32.75C44.9793 32.0208 45.8334 30.6875 45.8334 29.1667V18.75C45.8334 16.4583 43.9584 14.5833 41.6668 14.5833ZM20.8334 10.4167H29.1667V14.5833H20.8334V10.4167ZM41.6667 18.75H8.33342V29.1667H18.7501V22.9167H31.2501V29.1667H41.6667V18.75ZM27.0834 31.25H22.9167V27.0833H27.0834V31.25ZM10.4167 39.5833H39.5834V33.3333H31.2501V35.4167H18.7501V33.3333H10.4167V39.5833Z" fill="white"/>
</g>
</svg>
