<svg width="50" height="50" viewBox="0 0 50 50" fill="none" xmlns="http://www.w3.org/2000/svg">
<g opacity="0.3">
<path fill-rule="evenodd" clip-rule="evenodd" d="M39.5833 8.33335H30.875C30 5.91669 27.7083 4.16669 25 4.16669C22.2917 4.16669 20 5.91669 19.125 8.33335H10.4167C8.125 8.33335 6.25 10.2084 6.25 12.5V41.6667C6.25 43.9584 8.125 45.8334 10.4167 45.8334H39.5833C41.875 45.8334 43.75 43.9584 43.75 41.6667V12.5C43.75 10.2084 41.875 8.33335 39.5833 8.33335ZM25 7.81252C25.4583 7.81252 25.8542 8.02085 26.1458 8.33335C26.3958 8.60419 26.5625 8.97919 26.5625 9.37502C26.5625 10.2292 25.8542 10.9375 25 10.9375C24.1458 10.9375 23.4375 10.2292 23.4375 9.37502C23.4375 8.97919 23.6042 8.60419 23.8542 8.33335C24.1458 8.02085 24.5417 7.81252 25 7.81252ZM10.4167 12.5V41.6667H39.5833V12.5H10.4167ZM25 14.5834C21.5625 14.5834 18.75 17.3959 18.75 20.8334C18.75 24.2709 21.5625 27.0834 25 27.0834C28.4375 27.0834 31.25 24.2709 31.25 20.8334C31.25 17.3959 28.4375 14.5834 25 14.5834ZM22.9167 20.8334C22.9167 21.9792 23.8542 22.9167 25 22.9167C26.1458 22.9167 27.0833 21.9792 27.0833 20.8334C27.0833 19.6875 26.1458 18.75 25 18.75C23.8542 18.75 22.9167 19.6875 22.9167 20.8334ZM12.5 36.3959V39.5834H37.5V36.3959C37.5 31.1875 29.2292 28.9375 25 28.9375C20.7708 28.9375 12.5 31.1667 12.5 36.3959ZM25.0001 33.0834C22.2709 33.0834 18.7501 34.25 17.3126 35.4167H32.6876C31.2709 34.25 27.7292 33.0834 25.0001 33.0834Z" fill="white"/>
</g>
</svg>
