<svg width="44" height="44" viewBox="0 0 44 44" fill="none" xmlns="http://www.w3.org/2000/svg">
<g opacity="0.3">
<path fill-rule="evenodd" clip-rule="evenodd" d="M27.17 7.33335H34.8333C36.85 7.33335 38.5 8.98335 38.5 11V36.6667C38.5 38.6834 36.85 40.3334 34.8333 40.3334H9.16667C8.91 40.3334 8.67167 40.315 8.43333 40.2784C7.71833 40.1317 7.07667 39.765 6.58167 39.27C6.25167 38.9217 5.97667 38.5367 5.79333 38.0967C5.61 37.6567 5.5 37.1617 5.5 36.6667V11C5.5 10.4867 5.61 10.01 5.79333 9.58835C5.97667 9.14835 6.25167 8.74502 6.58167 8.41502C7.07667 7.92002 7.71833 7.55335 8.43333 7.40669C8.67167 7.35169 8.91 7.33335 9.16667 7.33335H16.83C17.6 5.20669 19.6167 3.66669 22 3.66669C24.3833 3.66669 26.4 5.20669 27.17 7.33335ZM12.8333 14.6667H31.1667V18.3334H12.8333V14.6667ZM31.1667 22H12.8333V25.6667H31.1667V22ZM25.6667 29.3333H12.8333V33H25.6667V29.3333ZM22 6.87502C22.7517 6.87502 23.375 7.49835 23.375 8.25002C23.375 9.00169 22.7517 9.62502 22 9.62502C21.2483 9.62502 20.625 9.00169 20.625 8.25002C20.625 7.49835 21.2483 6.87502 22 6.87502ZM9.16666 36.6667H34.8333V11H9.16666V36.6667Z" fill="white"/>
</g>
</svg>
