<svg width="18" height="18" viewBox="0 0 18 18" fill="none" xmlns="http://www.w3.org/2000/svg">
<path fill-rule="evenodd" clip-rule="evenodd" d="M14.6267 9C14.6267 9.255 14.6042 9.495 14.5742 9.735L16.1567 10.9725C16.2992 11.085 16.3367 11.2875 16.2467 11.4525L14.7467 14.0475C14.6792 14.1675 14.5517 14.235 14.4242 14.235C14.3792 14.235 14.3342 14.2275 14.2892 14.2125L12.4217 13.4625C12.0317 13.755 11.6117 14.01 11.1542 14.1975L10.8692 16.185C10.8467 16.365 10.6892 16.5 10.5017 16.5H7.50166C7.31416 16.5 7.15666 16.365 7.13416 16.185L6.84916 14.1975C6.39166 14.01 5.97166 13.7625 5.58166 13.4625L3.71416 14.2125C3.67666 14.2275 3.63166 14.235 3.58666 14.235C3.45166 14.235 3.32416 14.1675 3.25666 14.0475L1.75666 11.4525C1.66666 11.2875 1.70416 11.085 1.84666 10.9725L3.42916 9.735C3.39916 9.495 3.37666 9.2475 3.37666 9C3.37666 8.7525 3.39916 8.505 3.42916 8.265L1.84666 7.0275C1.70416 6.915 1.65916 6.7125 1.75666 6.5475L3.25666 3.9525C3.32416 3.8325 3.45166 3.765 3.57916 3.765C3.62416 3.765 3.66916 3.7725 3.71416 3.7875L5.58166 4.5375C5.97166 4.245 6.39166 3.99 6.84916 3.8025L7.13416 1.815C7.15666 1.635 7.31416 1.5 7.50166 1.5H10.5017C10.6892 1.5 10.8467 1.635 10.8692 1.815L11.1542 3.8025C11.6117 3.99 12.0317 4.2375 12.4217 4.5375L14.2892 3.7875C14.3267 3.7725 14.3717 3.765 14.4167 3.765C14.5517 3.765 14.6792 3.8325 14.7467 3.9525L16.2467 6.5475C16.3367 6.7125 16.2992 6.915 16.1567 7.0275L14.5742 8.265C14.6042 8.505 14.6267 8.745 14.6267 9ZM13.1267 9C13.1267 8.8425 13.1192 8.685 13.0892 8.4525L12.9842 7.605L13.6517 7.08L14.4542 6.4425L13.9292 5.535L12.9767 5.9175L12.1817 6.24L11.4992 5.715C11.1992 5.49 10.8992 5.3175 10.5767 5.1825L9.78166 4.86L9.66166 4.0125L9.51916 3H8.47666L8.32666 4.0125L8.20666 4.86L7.41166 5.1825C7.10416 5.31 6.79666 5.49 6.47416 5.73L5.79916 6.24L5.01916 5.925L4.06666 5.5425L3.54166 6.45L4.35166 7.08L5.01916 7.605L4.91416 8.4525C4.89166 8.6775 4.87666 8.85 4.87666 9C4.87666 9.15 4.89166 9.3225 4.91416 9.555L5.01916 10.4025L4.35166 10.9275L3.54166 11.5575L4.06666 12.465L5.01916 12.0825L5.81416 11.76L6.49666 12.285C6.79666 12.51 7.09666 12.6825 7.41916 12.8175L8.21416 13.14L8.33416 13.9875L8.47666 15H9.52666L9.67666 13.9875L9.79666 13.14L10.5917 12.8175C10.8992 12.69 11.2067 12.51 11.5292 12.27L12.2042 11.76L12.9842 12.075L13.9367 12.4575L14.4617 11.55L13.6517 10.92L12.9842 10.395L13.0892 9.5475C13.1117 9.3225 13.1267 9.1575 13.1267 9ZM9.00166 6C7.34416 6 6.00166 7.3425 6.00166 9C6.00166 10.6575 7.34416 12 9.00166 12C10.6592 12 12.0017 10.6575 12.0017 9C12.0017 7.3425 10.6592 6 9.00166 6ZM7.50166 9C7.50166 9.825 8.17666 10.5 9.00166 10.5C9.82666 10.5 10.5017 9.825 10.5017 9C10.5017 8.175 9.82666 7.5 9.00166 7.5C8.17666 7.5 7.50166 8.175 7.50166 9Z" fill="#7F8FA4"/>
</svg>
