<svg width="50" height="50" viewBox="0 0 50 50" fill="none" xmlns="http://www.w3.org/2000/svg">
<circle cx="25" cy="25" r="24" fill="#E6EAEE" stroke="#7F8FA4" stroke-width="2"/>
<path fill-rule="evenodd" clip-rule="evenodd" d="M16 18V32C16 33.1 16.89 34 18 34H32C33.1 34 34 33.1 34 32V18C34 16.9 33.1 16 32 16H18C16.89 16 16 16.9 16 18ZM28 22C28 23.66 26.66 25 25 25C23.34 25 22 23.66 22 22C22 20.34 23.34 19 25 19C26.66 19 28 20.34 28 22ZM25 26.9C23 26.9 19 28 19 30V31H31V30C31 28 27 26.9 25 26.9Z" fill="#7F8FA4"/>
</svg>
