<svg width="50" height="50" viewBox="0 0 50 50" fill="none" xmlns="http://www.w3.org/2000/svg">
<circle cx="25" cy="25" r="24" fill="#6B27E8" stroke="#4707BC" stroke-width="2"/>
<path fill-rule="evenodd" clip-rule="evenodd" d="M25 20H35V34H15V16H25V20ZM17 32H19V30H17V32ZM19 28H17V26H19V28ZM17 24H19V22H17V24ZM19 20H17V18H19V20ZM21 32H23V30H21V32ZM23 28H21V26H23V28ZM21 24H23V22H21V24ZM23 20H21V18H23V20ZM33 32V22H25V24H27V26H25V28H27V30H25V32H33ZM31 24H29V26H31V24ZM29 28H31V30H29V28Z" fill="white"/>
</svg>
