<svg width="50" height="50" viewBox="0 0 50 50" fill="none" xmlns="http://www.w3.org/2000/svg">
<circle cx="25" cy="25" r="24" fill="#E6EAEE" stroke="#7F8FA4" stroke-width="2"/>
<path fill-rule="evenodd" clip-rule="evenodd" d="M30.5 17C31.16 17 31.72 17.42 31.92 18.01L34 24V32C34 32.55 33.55 33 33 33H32C31.45 33 31 32.55 31 32V31H19V32C19 32.55 18.55 33 18 33H17C16.45 33 16 32.55 16 32V24L18.08 18.01C18.29 17.42 18.84 17 19.5 17H30.5ZM18 26.5C18 27.33 18.67 28 19.5 28C20.33 28 21 27.33 21 26.5C21 25.67 20.33 25 19.5 25C18.67 25 18 25.67 18 26.5ZM30.5 28C29.67 28 29 27.33 29 26.5C29 25.67 29.67 25 30.5 25C31.33 25 32 25.67 32 26.5C32 27.33 31.33 28 30.5 28ZM19.5 18.5L18 23H32L30.5 18.5H19.5Z" fill="#7F8FA4"/>
</svg>
